<?xml version="1.0" standalone="no"?>
<!DOCTYPE svg PUBLIC "-//W3C//DTD SVG 20010904//EN"
 "http://www.w3.org/TR/2001/REC-SVG-20010904/DTD/svg10.dtd">
<svg version="1.0" xmlns="http://www.w3.org/2000/svg"
 width="905.000000pt" height="960.000000pt" viewBox="0 0 905.000000 960.000000"
 preserveAspectRatio="xMidYMid meet">

<g transform="translate(0.000000,960.000000) scale(0.100000,-0.100000)"
fill="#000000" stroke="none">
<path d="M4403 6144 c-3 -8 2 -48 11 -87 12 -54 86 -747 86 -814 0 -12 -254
-173 -313 -197 -36 -15 -43 -36 -12 -36 19 0 96 42 225 123 57 36 106 65 107
63 7 -6 33 -171 44 -269 6 -60 20 -139 30 -175 10 -37 19 -94 19 -128 0 -41 8
-80 25 -121 13 -34 29 -91 35 -128 10 -64 59 -205 94 -274 9 -16 19 -54 24
-83 6 -44 11 -54 30 -56 18 -3 22 1 22 22 0 14 5 26 10 26 13 0 13 210 1 242
-17 44 -39 179 -80 508 -11 85 -29 187 -40 225 -11 39 -24 115 -30 170 -5 55
-13 111 -16 125 -6 24 -1 27 112 67 107 38 128 42 231 45 l113 3 36 -44 c93
-111 263 -364 278 -411 4 -14 18 -38 31 -53 13 -16 27 -41 30 -55 4 -15 15
-36 25 -47 10 -11 25 -40 34 -65 9 -24 23 -53 33 -63 15 -17 18 -53 22 -308
l5 -289 26 -25 c18 -19 55 -34 125 -53 97 -26 106 -26 414 -27 306 0 317 1
360 22 25 12 56 24 70 27 18 4 36 24 65 73 22 37 46 75 55 83 8 9 31 38 50 64
19 27 45 62 58 79 25 34 26 75 2 88 -8 4 -80 12 -160 19 -80 6 -150 16 -157
22 -7 6 -48 13 -90 17 -70 6 -74 8 -43 15 19 5 89 26 156 47 105 33 139 39
256 45 183 9 206 -5 153 -91 -13 -22 -25 -50 -25 -63 0 -13 -12 -43 -26 -68
-14 -24 -32 -65 -39 -91 -8 -27 -21 -66 -29 -88 -20 -54 -22 -246 -2 -278 8
-12 24 -64 37 -115 13 -51 30 -100 39 -110 8 -9 20 -35 25 -56 6 -22 16 -42
24 -44 11 -4 12 5 6 44 -4 27 -13 56 -20 64 -14 16 -33 70 -55 155 -8 28 -19
59 -27 70 -19 28 -17 208 3 260 8 22 22 65 30 94 9 30 24 66 35 79 10 13 21
40 25 59 4 20 17 54 30 77 13 23 24 56 24 73 0 27 -6 36 -32 49 -28 14 -53 16
-172 10 -123 -6 -155 -11 -266 -45 -162 -50 -262 -72 -380 -84 -14 -1 -24 -6
-23 -12 2 -6 79 -14 181 -20 101 -6 185 -15 193 -21 14 -12 198 -34 277 -34
53 0 54 -14 7 -71 -20 -23 -41 -51 -47 -63 -6 -12 -21 -33 -35 -47 -13 -15
-41 -55 -61 -89 -32 -55 -43 -65 -80 -76 -23 -6 -50 -18 -59 -26 -13 -10 -81
-13 -327 -13 -295 1 -316 2 -404 25 -63 16 -99 31 -115 48 l-22 24 0 521 c-1
673 0 652 -25 677 -11 11 -20 28 -20 38 0 10 -6 24 -12 30 -13 13 -17 115 -6
143 11 29 220 164 328 212 82 36 143 55 275 82 93 19 196 35 228 35 42 0 58 3
55 13 -9 24 -110 18 -287 -18 -148 -30 -193 -43 -292 -89 -64 -29 -157 -82
-205 -117 -70 -49 -100 -65 -139 -70 -77 -12 -127 -25 -160 -42 -16 -9 -42
-19 -56 -21 -14 -3 -43 -17 -63 -31 -31 -21 -48 -25 -89 -23 l-51 3 -85 111
c-47 61 -115 144 -150 185 -86 100 -359 379 -371 379 -6 0 -10 4 -10 10 0 14
-40 37 -78 44 -24 4 -34 2 -39 -10z m87 -49 c13 -14 29 -25 37 -25 7 0 13 -5
13 -11 0 -7 62 -73 138 -148 75 -75 164 -167 197 -205 84 -97 215 -269 209
-276 -3 -2 -51 -7 -107 -11 -86 -5 -119 -12 -210 -46 -72 -28 -110 -37 -112
-30 -14 41 -60 211 -69 255 -6 29 -15 52 -21 50 -17 -5 -6 -77 30 -205 19 -67
35 -124 35 -127 0 -2 -22 -18 -50 -35 -27 -17 -50 -28 -50 -26 0 3 -16 171
-35 373 -33 345 -44 433 -60 475 -11 27 27 22 55 -8z m1065 -672 c0 -60 4 -88
13 -90 6 -3 12 -17 12 -31 0 -16 8 -32 19 -39 16 -10 20 -30 26 -138 8 -137
-3 -442 -15 -428 -4 4 -13 24 -19 44 -6 20 -23 51 -36 69 -14 19 -25 41 -25
50 0 9 -11 27 -25 40 -13 12 -29 37 -35 55 -13 41 -93 164 -205 318 l-85 117
44 0 c27 0 48 6 56 15 15 18 62 40 105 50 16 4 36 12 44 18 14 12 81 33 111
36 12 1 15 -15 15 -86z m-890 -284 c7 -68 20 -146 29 -174 9 -27 23 -111 31
-185 9 -74 22 -164 30 -200 7 -36 17 -99 21 -140 3 -41 14 -104 22 -140 14
-59 30 -281 19 -270 -6 7 -52 118 -87 212 -16 42 -34 107 -41 145 -6 37 -22
94 -35 125 -17 39 -24 77 -24 119 0 34 -9 92 -19 128 -11 36 -25 113 -31 171
-6 58 -17 140 -25 184 -8 43 -15 85 -15 92 0 19 91 77 103 65 5 -5 15 -64 22
-132z"/>
<path d="M1431 5840 c-371 -63 -411 -72 -489 -107 -97 -44 -124 -73 -141 -151
-25 -120 -5 -348 41 -459 24 -59 34 -73 60 -82 37 -13 167 -13 368 -1 188 11
311 -1 456 -46 147 -45 164 -59 164 -130 0 -50 -5 -62 -61 -147 -68 -101 -143
-186 -232 -261 -58 -48 -60 -49 -215 -82 -209 -44 -235 -44 -331 6 -42 22 -92
53 -111 69 -34 28 -35 32 -40 110 -3 45 -9 82 -15 84 -14 3 -18 -141 -5 -173
11 -27 101 -91 187 -134 70 -35 116 -33 318 8 l165 34 63 52 c84 67 170 164
245 277 60 89 62 95 62 156 0 90 -26 113 -185 160 -175 52 -266 59 -537 45
-290 -15 -294 -15 -329 72 -43 104 -63 334 -38 438 15 62 40 87 125 128 64 30
112 40 492 104 264 44 450 70 497 70 57 0 76 3 73 13 -3 8 -33 13 -94 14 -70
1 -177 -14 -493 -67z"/>
<path d="M3877 5823 c-15 -15 -7 -55 13 -60 19 -5 20 -14 20 -142 1 -178 24
-494 49 -651 11 -69 27 -228 36 -355 37 -535 54 -694 85 -801 18 -60 30 -125
30 -158 0 -32 9 -78 20 -108 23 -60 27 -165 7 -191 -28 -40 -161 133 -692 903
-81 118 -156 224 -166 235 -9 11 -23 42 -31 68 -8 27 -18 49 -23 50 -6 1 -14
-117 -20 -293 -9 -254 -13 -300 -28 -328 -16 -30 -19 -72 -25 -380 l-8 -347
-22 72 c-13 40 -38 99 -57 130 -40 69 -150 319 -402 918 -142 335 -211 516
-293 760 -59 176 -115 336 -125 355 -10 19 -21 48 -24 63 -3 15 -11 29 -16 30
-21 4 -15 -54 11 -105 15 -29 75 -197 134 -373 81 -242 153 -428 294 -765 223
-529 359 -838 397 -900 15 -25 35 -72 44 -104 17 -59 70 -156 84 -156 5 0 10
170 13 378 5 360 6 380 27 419 17 34 21 60 21 136 0 52 3 156 7 231 5 109 9
134 18 124 7 -7 90 -125 185 -263 517 -749 652 -925 696 -911 47 15 59 148 24
251 -11 32 -20 81 -20 110 0 28 -13 96 -30 151 -31 104 -48 262 -85 794 -8
118 -26 296 -39 395 -28 206 -46 453 -46 637 0 79 -4 129 -11 133 -5 4 -14 18
-19 31 -9 24 -21 30 -33 17z"/>
</g>
</svg>
